<mxfile host="app.diagrams.net" modified="2023-12-29T16:50:28.294Z" agent="Mozilla/5.0 (X11; Linux x86_64) AppleWebKit/537.36 (KHTML, like Gecko) Chrome/120.0.0.0 Safari/537.36" etag="0wMEoL2DycfasqbKhK0T" version="22.1.16" type="google">
  <diagram name="013-LinkingByCopy" id="O0EzCrE9_i2seC9WDiSg">
    <mxGraphModel grid="1" page="1" gridSize="10" guides="1" tooltips="1" connect="1" arrows="1" fold="1" pageScale="1" pageWidth="827" pageHeight="1169" math="0" shadow="0">
      <root>
        <mxCell id="0" />
        <mxCell id="1" parent="0" />
        <mxCell id="VSZ_r1YbwB4cjB5XSmfl-58" value="&lt;div&gt;&lt;i&gt;This work is licensed under a&lt;/i&gt;&lt;/div&gt;&lt;div&gt;&lt;b&gt;&lt;i&gt;Creative Commons Attribution 4.0 International License&lt;/i&gt;&lt;/b&gt;&lt;/div&gt;" style="text;html=1;strokeColor=none;fillColor=none;align=center;verticalAlign=middle;whiteSpace=wrap;rounded=0;fontSize=20;fontFamily=Architects Daughter;" vertex="1" parent="1">
          <mxGeometry x="-115.00000000000001" y="790" width="970" height="60" as="geometry" />
        </mxCell>
        <mxCell id="usZYlOmcPLAZMyaFVmCF-1" value="Creative&lt;br&gt;Work&amp;nbsp;" style="ellipse;whiteSpace=wrap;html=1;aspect=fixed;sketch=1;hachureGap=4;jiggle=2;curveFitting=1;fontFamily=Architects Daughter;fontSource=https%3A%2F%2Ffonts.googleapis.com%2Fcss%3Ffamily%3DArchitects%2BDaughter;fontSize=20;fillColor=#d5e8d4;strokeColor=#82b366;" vertex="1" parent="1">
          <mxGeometry x="315" y="70" width="110" height="110" as="geometry" />
        </mxCell>
        <mxCell id="usZYlOmcPLAZMyaFVmCF-2" style="edgeStyle=none;rounded=0;sketch=1;hachureGap=4;jiggle=2;curveFitting=1;orthogonalLoop=1;jettySize=auto;html=1;fontFamily=Architects Daughter;fontSource=https%3A%2F%2Ffonts.googleapis.com%2Fcss%3Ffamily%3DArchitects%2BDaughter;fontSize=16;" edge="1" parent="1" source="usZYlOmcPLAZMyaFVmCF-3" target="usZYlOmcPLAZMyaFVmCF-1">
          <mxGeometry relative="1" as="geometry" />
        </mxCell>
        <mxCell id="usZYlOmcPLAZMyaFVmCF-3" value="Book" style="ellipse;whiteSpace=wrap;html=1;aspect=fixed;sketch=1;hachureGap=4;jiggle=2;curveFitting=1;fontFamily=Architects Daughter;fontSource=https%3A%2F%2Ffonts.googleapis.com%2Fcss%3Ffamily%3DArchitects%2BDaughter;fontSize=20;fillColor=#d5e8d4;strokeColor=#82b366;" vertex="1" parent="1">
          <mxGeometry x="140" y="270" width="110" height="110" as="geometry" />
        </mxCell>
        <mxCell id="usZYlOmcPLAZMyaFVmCF-4" style="edgeStyle=none;rounded=0;sketch=1;hachureGap=4;jiggle=2;curveFitting=1;orthogonalLoop=1;jettySize=auto;html=1;fontFamily=Architects Daughter;fontSource=https%3A%2F%2Ffonts.googleapis.com%2Fcss%3Ffamily%3DArchitects%2BDaughter;fontSize=16;" edge="1" parent="1" source="usZYlOmcPLAZMyaFVmCF-5" target="usZYlOmcPLAZMyaFVmCF-1">
          <mxGeometry relative="1" as="geometry" />
        </mxCell>
        <mxCell id="usZYlOmcPLAZMyaFVmCF-5" value="Chapter" style="ellipse;whiteSpace=wrap;html=1;aspect=fixed;sketch=1;hachureGap=4;jiggle=2;curveFitting=1;fontFamily=Architects Daughter;fontSource=https%3A%2F%2Ffonts.googleapis.com%2Fcss%3Ffamily%3DArchitects%2BDaughter;fontSize=20;fillColor=#d5e8d4;strokeColor=#82b366;" vertex="1" parent="1">
          <mxGeometry x="470" y="270" width="110" height="110" as="geometry" />
        </mxCell>
        <mxCell id="usZYlOmcPLAZMyaFVmCF-6" value="" style="endArrow=classic;html=1;rounded=0;sketch=1;hachureGap=4;jiggle=2;curveFitting=1;fontFamily=Architects Daughter;fontSource=https%3A%2F%2Ffonts.googleapis.com%2Fcss%3Ffamily%3DArchitects%2BDaughter;fontSize=16;entryX=1;entryY=0.5;entryDx=0;entryDy=0;exitX=0;exitY=0.5;exitDx=0;exitDy=0;" edge="1" parent="1" source="usZYlOmcPLAZMyaFVmCF-5" target="usZYlOmcPLAZMyaFVmCF-3">
          <mxGeometry width="50" height="50" relative="1" as="geometry">
            <mxPoint x="390" y="420" as="sourcePoint" />
            <mxPoint x="440" y="370" as="targetPoint" />
          </mxGeometry>
        </mxCell>
        <mxCell id="usZYlOmcPLAZMyaFVmCF-7" value="isPartOf" style="text;html=1;align=center;verticalAlign=middle;resizable=0;points=[];autosize=1;strokeColor=none;fillColor=none;fontSize=20;fontFamily=Architects Daughter;" vertex="1" parent="1">
          <mxGeometry x="320" y="280" width="100" height="40" as="geometry" />
        </mxCell>
        <mxCell id="usZYlOmcPLAZMyaFVmCF-8" value="subClassOf" style="text;html=1;strokeColor=none;fillColor=none;align=center;verticalAlign=middle;whiteSpace=wrap;rounded=0;fontSize=20;fontFamily=Architects Daughter;" vertex="1" parent="1">
          <mxGeometry x="470" y="190" width="100" height="30" as="geometry" />
        </mxCell>
        <mxCell id="usZYlOmcPLAZMyaFVmCF-9" value="subClassOf" style="text;html=1;strokeColor=none;fillColor=none;align=center;verticalAlign=middle;whiteSpace=wrap;rounded=0;fontSize=20;fontFamily=Architects Daughter;" vertex="1" parent="1">
          <mxGeometry x="145" y="190" width="100" height="30" as="geometry" />
        </mxCell>
        <mxCell id="usZYlOmcPLAZMyaFVmCF-10" value="&lt;font style=&quot;font-size: 18px;&quot;&gt;The Silmarillion&lt;/font&gt;" style="ellipse;whiteSpace=wrap;html=1;aspect=fixed;sketch=1;hachureGap=4;jiggle=2;curveFitting=1;fontFamily=Architects Daughter;fontSource=https%3A%2F%2Ffonts.googleapis.com%2Fcss%3Ffamily%3DArchitects%2BDaughter;fontSize=20;fillColor=#dae8fc;strokeColor=#6c8ebf;" vertex="1" parent="1">
          <mxGeometry x="20" y="440" width="110" height="110" as="geometry" />
        </mxCell>
        <mxCell id="usZYlOmcPLAZMyaFVmCF-11" style="edgeStyle=none;rounded=0;sketch=1;hachureGap=4;jiggle=2;curveFitting=1;orthogonalLoop=1;jettySize=auto;html=1;entryX=0.173;entryY=0.927;entryDx=0;entryDy=0;entryPerimeter=0;fontFamily=Architects Daughter;fontSource=https%3A%2F%2Ffonts.googleapis.com%2Fcss%3Ffamily%3DArchitects%2BDaughter;fontSize=16;" edge="1" parent="1" source="usZYlOmcPLAZMyaFVmCF-10" target="usZYlOmcPLAZMyaFVmCF-3">
          <mxGeometry relative="1" as="geometry" />
        </mxCell>
        <mxCell id="usZYlOmcPLAZMyaFVmCF-12" value="&lt;font style=&quot;font-size: 18px;&quot;&gt;The &lt;br&gt;Hobbit&lt;/font&gt;" style="ellipse;whiteSpace=wrap;html=1;aspect=fixed;sketch=1;hachureGap=4;jiggle=2;curveFitting=1;fontFamily=Architects Daughter;fontSource=https%3A%2F%2Ffonts.googleapis.com%2Fcss%3Ffamily%3DArchitects%2BDaughter;fontSize=20;fillColor=#dae8fc;strokeColor=#6c8ebf;" vertex="1" parent="1">
          <mxGeometry x="145" y="440" width="110" height="110" as="geometry" />
        </mxCell>
        <mxCell id="usZYlOmcPLAZMyaFVmCF-13" value="&lt;font style=&quot;font-size: 18px;&quot;&gt;The &lt;br&gt;Lord of the Rings&lt;/font&gt;" style="ellipse;whiteSpace=wrap;html=1;aspect=fixed;sketch=1;hachureGap=4;jiggle=2;curveFitting=1;fontFamily=Architects Daughter;fontSource=https%3A%2F%2Ffonts.googleapis.com%2Fcss%3Ffamily%3DArchitects%2BDaughter;fontSize=20;fillColor=#dae8fc;strokeColor=#6c8ebf;" vertex="1" parent="1">
          <mxGeometry x="270" y="440" width="110" height="110" as="geometry" />
        </mxCell>
        <mxCell id="usZYlOmcPLAZMyaFVmCF-14" style="edgeStyle=none;rounded=0;sketch=1;hachureGap=4;jiggle=2;curveFitting=1;orthogonalLoop=1;jettySize=auto;html=1;entryX=0.5;entryY=1;entryDx=0;entryDy=0;fontFamily=Architects Daughter;fontSource=https%3A%2F%2Ffonts.googleapis.com%2Fcss%3Ffamily%3DArchitects%2BDaughter;fontSize=16;" edge="1" parent="1" source="usZYlOmcPLAZMyaFVmCF-12" target="usZYlOmcPLAZMyaFVmCF-3">
          <mxGeometry relative="1" as="geometry" />
        </mxCell>
        <mxCell id="usZYlOmcPLAZMyaFVmCF-15" style="edgeStyle=none;rounded=0;sketch=1;hachureGap=4;jiggle=2;curveFitting=1;orthogonalLoop=1;jettySize=auto;html=1;entryX=0.827;entryY=0.936;entryDx=0;entryDy=0;entryPerimeter=0;fontFamily=Architects Daughter;fontSource=https%3A%2F%2Ffonts.googleapis.com%2Fcss%3Ffamily%3DArchitects%2BDaughter;fontSize=16;" edge="1" parent="1" source="usZYlOmcPLAZMyaFVmCF-13" target="usZYlOmcPLAZMyaFVmCF-3">
          <mxGeometry relative="1" as="geometry" />
        </mxCell>
        <mxCell id="usZYlOmcPLAZMyaFVmCF-16" value="type" style="text;html=1;align=center;verticalAlign=middle;resizable=0;points=[];autosize=1;strokeColor=none;fillColor=none;fontSize=20;fontFamily=Architects Daughter;rotation=-50;" vertex="1" parent="1">
          <mxGeometry x="80" y="380" width="60" height="40" as="geometry" />
        </mxCell>
        <mxCell id="usZYlOmcPLAZMyaFVmCF-17" value="type" style="text;html=1;align=center;verticalAlign=middle;resizable=0;points=[];autosize=1;strokeColor=none;fillColor=none;fontSize=20;fontFamily=Architects Daughter;rotation=-90;" vertex="1" parent="1">
          <mxGeometry x="140" y="390" width="60" height="40" as="geometry" />
        </mxCell>
        <mxCell id="usZYlOmcPLAZMyaFVmCF-18" value="type" style="text;html=1;align=center;verticalAlign=middle;resizable=0;points=[];autosize=1;strokeColor=none;fillColor=none;fontSize=20;fontFamily=Architects Daughter;rotation=-128;" vertex="1" parent="1">
          <mxGeometry x="210" y="400" width="60" height="40" as="geometry" />
        </mxCell>
        <mxCell id="usZYlOmcPLAZMyaFVmCF-19" value="Books" style="shape=table;startSize=30;container=1;collapsible=0;childLayout=tableLayout;strokeColor=default;fontSize=16;sketch=1;hachureGap=4;jiggle=2;curveFitting=1;fontFamily=Architects Daughter;fontSource=https%3A%2F%2Ffonts.googleapis.com%2Fcss%3Ffamily%3DArchitects%2BDaughter;fillColor=#7EA6E0;fontStyle=1" vertex="1" parent="1">
          <mxGeometry x="130" y="630" width="165" height="110" as="geometry" />
        </mxCell>
        <mxCell id="usZYlOmcPLAZMyaFVmCF-20" value="" style="shape=tableRow;horizontal=0;startSize=0;swimlaneHead=0;swimlaneBody=0;strokeColor=inherit;top=0;left=0;bottom=0;right=0;collapsible=0;dropTarget=0;fillColor=none;points=[[0,0.5],[1,0.5]];portConstraint=eastwest;fontSize=16;sketch=1;hachureGap=4;jiggle=2;curveFitting=1;fontFamily=Architects Daughter;fontSource=https%3A%2F%2Ffonts.googleapis.com%2Fcss%3Ffamily%3DArchitects%2BDaughter;" vertex="1" parent="usZYlOmcPLAZMyaFVmCF-19">
          <mxGeometry y="30" width="165" height="27" as="geometry" />
        </mxCell>
        <mxCell id="usZYlOmcPLAZMyaFVmCF-21" value="" style="shape=partialRectangle;html=1;whiteSpace=wrap;connectable=0;strokeColor=inherit;overflow=hidden;fillColor=none;top=0;left=0;bottom=0;right=0;pointerEvents=1;fontSize=16;sketch=1;hachureGap=4;jiggle=2;curveFitting=1;fontFamily=Architects Daughter;fontSource=https%3A%2F%2Ffonts.googleapis.com%2Fcss%3Ffamily%3DArchitects%2BDaughter;" vertex="1" parent="usZYlOmcPLAZMyaFVmCF-20">
          <mxGeometry width="55" height="27" as="geometry">
            <mxRectangle width="55" height="27" as="alternateBounds" />
          </mxGeometry>
        </mxCell>
        <mxCell id="usZYlOmcPLAZMyaFVmCF-22" value="" style="shape=partialRectangle;html=1;whiteSpace=wrap;connectable=0;strokeColor=inherit;overflow=hidden;fillColor=none;top=0;left=0;bottom=0;right=0;pointerEvents=1;fontSize=16;sketch=1;hachureGap=4;jiggle=2;curveFitting=1;fontFamily=Architects Daughter;fontSource=https%3A%2F%2Ffonts.googleapis.com%2Fcss%3Ffamily%3DArchitects%2BDaughter;" vertex="1" parent="usZYlOmcPLAZMyaFVmCF-20">
          <mxGeometry x="55" width="55" height="27" as="geometry">
            <mxRectangle width="55" height="27" as="alternateBounds" />
          </mxGeometry>
        </mxCell>
        <mxCell id="usZYlOmcPLAZMyaFVmCF-23" value="" style="shape=partialRectangle;html=1;whiteSpace=wrap;connectable=0;strokeColor=inherit;overflow=hidden;fillColor=none;top=0;left=0;bottom=0;right=0;pointerEvents=1;fontSize=16;sketch=1;hachureGap=4;jiggle=2;curveFitting=1;fontFamily=Architects Daughter;fontSource=https%3A%2F%2Ffonts.googleapis.com%2Fcss%3Ffamily%3DArchitects%2BDaughter;" vertex="1" parent="usZYlOmcPLAZMyaFVmCF-20">
          <mxGeometry x="110" width="55" height="27" as="geometry">
            <mxRectangle width="55" height="27" as="alternateBounds" />
          </mxGeometry>
        </mxCell>
        <mxCell id="usZYlOmcPLAZMyaFVmCF-24" value="" style="shape=tableRow;horizontal=0;startSize=0;swimlaneHead=0;swimlaneBody=0;strokeColor=inherit;top=0;left=0;bottom=0;right=0;collapsible=0;dropTarget=0;fillColor=none;points=[[0,0.5],[1,0.5]];portConstraint=eastwest;fontSize=16;sketch=1;hachureGap=4;jiggle=2;curveFitting=1;fontFamily=Architects Daughter;fontSource=https%3A%2F%2Ffonts.googleapis.com%2Fcss%3Ffamily%3DArchitects%2BDaughter;" vertex="1" parent="usZYlOmcPLAZMyaFVmCF-19">
          <mxGeometry y="57" width="165" height="26" as="geometry" />
        </mxCell>
        <mxCell id="usZYlOmcPLAZMyaFVmCF-25" value="" style="shape=partialRectangle;html=1;whiteSpace=wrap;connectable=0;strokeColor=inherit;overflow=hidden;fillColor=none;top=0;left=0;bottom=0;right=0;pointerEvents=1;fontSize=16;sketch=1;hachureGap=4;jiggle=2;curveFitting=1;fontFamily=Architects Daughter;fontSource=https%3A%2F%2Ffonts.googleapis.com%2Fcss%3Ffamily%3DArchitects%2BDaughter;" vertex="1" parent="usZYlOmcPLAZMyaFVmCF-24">
          <mxGeometry width="55" height="26" as="geometry">
            <mxRectangle width="55" height="26" as="alternateBounds" />
          </mxGeometry>
        </mxCell>
        <mxCell id="usZYlOmcPLAZMyaFVmCF-26" value="" style="shape=partialRectangle;html=1;whiteSpace=wrap;connectable=0;strokeColor=inherit;overflow=hidden;fillColor=none;top=0;left=0;bottom=0;right=0;pointerEvents=1;fontSize=16;sketch=1;hachureGap=4;jiggle=2;curveFitting=1;fontFamily=Architects Daughter;fontSource=https%3A%2F%2Ffonts.googleapis.com%2Fcss%3Ffamily%3DArchitects%2BDaughter;" vertex="1" parent="usZYlOmcPLAZMyaFVmCF-24">
          <mxGeometry x="55" width="55" height="26" as="geometry">
            <mxRectangle width="55" height="26" as="alternateBounds" />
          </mxGeometry>
        </mxCell>
        <mxCell id="usZYlOmcPLAZMyaFVmCF-27" value="" style="shape=partialRectangle;html=1;whiteSpace=wrap;connectable=0;strokeColor=inherit;overflow=hidden;fillColor=none;top=0;left=0;bottom=0;right=0;pointerEvents=1;fontSize=16;sketch=1;hachureGap=4;jiggle=2;curveFitting=1;fontFamily=Architects Daughter;fontSource=https%3A%2F%2Ffonts.googleapis.com%2Fcss%3Ffamily%3DArchitects%2BDaughter;" vertex="1" parent="usZYlOmcPLAZMyaFVmCF-24">
          <mxGeometry x="110" width="55" height="26" as="geometry">
            <mxRectangle width="55" height="26" as="alternateBounds" />
          </mxGeometry>
        </mxCell>
        <mxCell id="usZYlOmcPLAZMyaFVmCF-28" value="" style="shape=tableRow;horizontal=0;startSize=0;swimlaneHead=0;swimlaneBody=0;strokeColor=inherit;top=0;left=0;bottom=0;right=0;collapsible=0;dropTarget=0;fillColor=none;points=[[0,0.5],[1,0.5]];portConstraint=eastwest;fontSize=16;sketch=1;hachureGap=4;jiggle=2;curveFitting=1;fontFamily=Architects Daughter;fontSource=https%3A%2F%2Ffonts.googleapis.com%2Fcss%3Ffamily%3DArchitects%2BDaughter;" vertex="1" parent="usZYlOmcPLAZMyaFVmCF-19">
          <mxGeometry y="83" width="165" height="27" as="geometry" />
        </mxCell>
        <mxCell id="usZYlOmcPLAZMyaFVmCF-29" value="" style="shape=partialRectangle;html=1;whiteSpace=wrap;connectable=0;strokeColor=inherit;overflow=hidden;fillColor=none;top=0;left=0;bottom=0;right=0;pointerEvents=1;fontSize=16;sketch=1;hachureGap=4;jiggle=2;curveFitting=1;fontFamily=Architects Daughter;fontSource=https%3A%2F%2Ffonts.googleapis.com%2Fcss%3Ffamily%3DArchitects%2BDaughter;" vertex="1" parent="usZYlOmcPLAZMyaFVmCF-28">
          <mxGeometry width="55" height="27" as="geometry">
            <mxRectangle width="55" height="27" as="alternateBounds" />
          </mxGeometry>
        </mxCell>
        <mxCell id="usZYlOmcPLAZMyaFVmCF-30" value="" style="shape=partialRectangle;html=1;whiteSpace=wrap;connectable=0;strokeColor=inherit;overflow=hidden;fillColor=none;top=0;left=0;bottom=0;right=0;pointerEvents=1;fontSize=16;sketch=1;hachureGap=4;jiggle=2;curveFitting=1;fontFamily=Architects Daughter;fontSource=https%3A%2F%2Ffonts.googleapis.com%2Fcss%3Ffamily%3DArchitects%2BDaughter;" vertex="1" parent="usZYlOmcPLAZMyaFVmCF-28">
          <mxGeometry x="55" width="55" height="27" as="geometry">
            <mxRectangle width="55" height="27" as="alternateBounds" />
          </mxGeometry>
        </mxCell>
        <mxCell id="usZYlOmcPLAZMyaFVmCF-31" value="" style="shape=partialRectangle;html=1;whiteSpace=wrap;connectable=0;strokeColor=inherit;overflow=hidden;fillColor=none;top=0;left=0;bottom=0;right=0;pointerEvents=1;fontSize=16;sketch=1;hachureGap=4;jiggle=2;curveFitting=1;fontFamily=Architects Daughter;fontSource=https%3A%2F%2Ffonts.googleapis.com%2Fcss%3Ffamily%3DArchitects%2BDaughter;" vertex="1" parent="usZYlOmcPLAZMyaFVmCF-28">
          <mxGeometry x="110" width="55" height="27" as="geometry">
            <mxRectangle width="55" height="27" as="alternateBounds" />
          </mxGeometry>
        </mxCell>
        <mxCell id="usZYlOmcPLAZMyaFVmCF-32" value="" style="endArrow=none;dashed=1;html=1;dashPattern=1 3;strokeWidth=2;rounded=0;sketch=1;hachureGap=4;jiggle=2;curveFitting=1;fontFamily=Architects Daughter;fontSource=https%3A%2F%2Ffonts.googleapis.com%2Fcss%3Ffamily%3DArchitects%2BDaughter;fontSize=16;fontColor=#B3B3B3;strokeColor=#666666;" edge="1" parent="1">
          <mxGeometry width="50" height="50" relative="1" as="geometry">
            <mxPoint x="-160" y="400" as="sourcePoint" />
            <mxPoint x="760" y="400" as="targetPoint" />
          </mxGeometry>
        </mxCell>
        <mxCell id="usZYlOmcPLAZMyaFVmCF-33" value="&lt;b&gt;&lt;font style=&quot;font-size: 25px;&quot;&gt;Classes&lt;/font&gt;&lt;/b&gt;" style="text;html=1;strokeColor=none;fillColor=none;align=center;verticalAlign=middle;whiteSpace=wrap;rounded=0;fontSize=20;fontFamily=Architects Daughter;fontColor=#4D4D4D;" vertex="1" parent="1">
          <mxGeometry x="650" y="300" width="60" height="30" as="geometry" />
        </mxCell>
        <mxCell id="usZYlOmcPLAZMyaFVmCF-34" value="&lt;b&gt;&lt;font style=&quot;font-size: 25px;&quot;&gt;Instances&lt;/font&gt;&lt;/b&gt;" style="text;html=1;strokeColor=none;fillColor=none;align=center;verticalAlign=middle;whiteSpace=wrap;rounded=0;fontSize=20;fontFamily=Architects Daughter;fontColor=#4D4D4D;" vertex="1" parent="1">
          <mxGeometry x="660" y="490" width="60" height="30" as="geometry" />
        </mxCell>
        <mxCell id="usZYlOmcPLAZMyaFVmCF-35" value="" style="endArrow=none;html=1;strokeWidth=2;rounded=0;sketch=1;hachureGap=4;jiggle=2;curveFitting=1;fontFamily=Architects Daughter;fontSource=https%3A%2F%2Ffonts.googleapis.com%2Fcss%3Ffamily%3DArchitects%2BDaughter;fontSize=16;fontColor=#B3B3B3;" edge="1" parent="1">
          <mxGeometry width="50" height="50" relative="1" as="geometry">
            <mxPoint x="-160" y="590" as="sourcePoint" />
            <mxPoint x="760" y="584" as="targetPoint" />
          </mxGeometry>
        </mxCell>
        <mxCell id="usZYlOmcPLAZMyaFVmCF-36" value="&lt;b&gt;&lt;font style=&quot;font-size: 25px;&quot;&gt;Physical Data&lt;/font&gt;&lt;/b&gt;" style="text;html=1;strokeColor=none;fillColor=none;align=center;verticalAlign=middle;whiteSpace=wrap;rounded=0;fontSize=20;fontFamily=Architects Daughter;fontColor=#4D4D4D;" vertex="1" parent="1">
          <mxGeometry x="660" y="650" width="60" height="30" as="geometry" />
        </mxCell>
        <mxCell id="usZYlOmcPLAZMyaFVmCF-37" value="&lt;b style=&quot;border-color: var(--border-color);&quot;&gt;&lt;font style=&quot;border-color: var(--border-color); font-size: 25px;&quot;&gt;Link by COPY&lt;/font&gt;&lt;/b&gt;" style="text;html=1;strokeColor=none;fillColor=none;align=center;verticalAlign=middle;whiteSpace=wrap;rounded=0;fontSize=20;fontFamily=Architects Daughter;" vertex="1" parent="1">
          <mxGeometry x="-120" y="-10" width="880" height="50" as="geometry" />
        </mxCell>
        <mxCell id="usZYlOmcPLAZMyaFVmCF-38" value="" style="html=1;shadow=0;dashed=0;align=center;verticalAlign=middle;shape=mxgraph.arrows2.uTurnArrow;dy=11;arrowHead=43;dx2=46.25;sketch=1;hachureGap=4;jiggle=2;curveFitting=1;fontFamily=Architects Daughter;fontSource=https%3A%2F%2Ffonts.googleapis.com%2Fcss%3Ffamily%3DArchitects%2BDaughter;fontSize=20;rotation=-180;flipV=1;fillColor=#007FFF;strokeColor=#007FFF;" vertex="1" parent="1">
          <mxGeometry x="310" y="470" width="250" height="230" as="geometry" />
        </mxCell>
        <mxCell id="usZYlOmcPLAZMyaFVmCF-39" value="&lt;span style=&quot;background-color: rgb(126, 166, 224);&quot;&gt;added as copies&lt;/span&gt;" style="text;html=1;strokeColor=none;fillColor=none;align=center;verticalAlign=middle;whiteSpace=wrap;rounded=0;fontSize=20;fontFamily=Architects Daughter;" vertex="1" parent="1">
          <mxGeometry x="440" y="430" width="200" height="30" as="geometry" />
        </mxCell>
        <mxCell id="usZYlOmcPLAZMyaFVmCF-40" value="" style="html=1;shadow=0;dashed=0;align=center;verticalAlign=middle;shape=mxgraph.arrows2.uTurnArrow;dy=11;arrowHead=43;dx2=25;sketch=1;hachureGap=4;jiggle=2;curveFitting=1;fontFamily=Architects Daughter;fontSource=https%3A%2F%2Ffonts.googleapis.com%2Fcss%3Ffamily%3DArchitects%2BDaughter;fontSize=20;fillColor=#CC00CC;strokeColor=#CC00CC;" vertex="1" parent="1">
          <mxGeometry x="-90" y="320" width="200" height="380" as="geometry" />
        </mxCell>
        <mxCell id="usZYlOmcPLAZMyaFVmCF-41" value="Data product&lt;br&gt;teams" style="shape=umlActor;verticalLabelPosition=bottom;verticalAlign=top;html=1;outlineConnect=0;sketch=1;curveFitting=1;jiggle=2;fillColor=#0066CC;strokeColor=#000000;fillStyle=solid;" vertex="1" parent="1">
          <mxGeometry x="-140" y="465" width="30" height="60" as="geometry" />
        </mxCell>
        <mxCell id="usZYlOmcPLAZMyaFVmCF-42" value="DataOps&lt;br&gt;Platform" style="shape=loopLimit;whiteSpace=wrap;html=1;sketch=1;hachureGap=4;jiggle=2;curveFitting=1;fontFamily=Architects Daughter;fontSource=https%3A%2F%2Ffonts.googleapis.com%2Fcss%3Ffamily%3DArchitects%2BDaughter;fontSize=20;fillColor=#7EA6E0;fillStyle=solid;" vertex="1" parent="1">
          <mxGeometry x="490" y="550" width="100" height="80" as="geometry" />
        </mxCell>
        <mxCell id="usZYlOmcPLAZMyaFVmCF-43" value="&lt;span style=&quot;background-color: rgb(255, 153, 255);&quot;&gt;semantic link&lt;/span&gt;" style="text;html=1;strokeColor=none;fillColor=none;align=center;verticalAlign=middle;whiteSpace=wrap;rounded=0;fontSize=20;fontFamily=Architects Daughter;" vertex="1" parent="1">
          <mxGeometry x="-110" y="300" width="200" height="30" as="geometry" />
        </mxCell>
        <mxCell id="usZYlOmcPLAZMyaFVmCF-44" value="Federated &lt;br&gt;modeling &lt;br&gt;team" style="shape=umlActor;verticalLabelPosition=bottom;verticalAlign=top;html=1;outlineConnect=0;sketch=1;curveFitting=1;jiggle=2;fillColor=#009900;strokeColor=#000000;fillStyle=solid;" vertex="1" parent="1">
          <mxGeometry x="-120" y="100" width="30" height="60" as="geometry" />
        </mxCell>
      </root>
    </mxGraphModel>
  </diagram>
</mxfile>
